<?xml version="1.0" ?><svg height="1024" preserveAspectRatio="xMidYMid meet" width="1024" xmlns="http://www.w3.org/2000/svg"><g><title/><rect fill="none" height="402" id="canvas_background" width="582" x="-1" y="-1"/></g><g><title/><g fill="#000000" id="svg_1" transform="translate(0,1024) scale(0.10000000149011612,-0.10000000149011612) "><path d="m4855,9439c-884,-55 -1739,-386 -2430,-940c-659,-528 -1153,-1237 -1414,-2029c-318,-963 -287,-2010 86,-2960c64,-163 217,-472 310,-626c376,-621 876,-1121 1497,-1497c154,-93 464,-246 626,-310c1034,-405 2166,-405 3200,0c162,64 472,217 626,310c621,376 1121,876 1497,1497c93,154 246,464 310,626c377,962 404,2009 77,2990c-120,357 -321,757 -545,1081c-533,768 -1320,1357 -2205,1648c-523,173 -1083,245 -1635,210zm-1619,-1504c196,-34 293,-83 424,-214c82,-82 103,-110 143,-191c25,-52 54,-123 63,-157c10,-35 22,-63 28,-63c6,0 45,7 86,16c134,29 389,5 574,-53c115,-36 271,-113 353,-175c84,-63 185,-157 181,-168c-2,-4 -124,-134 -271,-288l-269,-281l-66,56c-81,69 -173,112 -255,120c-76,6 -232,-19 -289,-48c-45,-23 -161,-136 -183,-179c-38,-73 -59,-244 -40,-331c28,-137 7,-113 719,-826l661,-663l-105,-106c-58,-58 -185,-182 -282,-276l-178,-170l-270,264c-417,405 -1062,1068 -1120,1150c-99,139 -179,328 -215,503c-26,126 -22,297 11,498c8,48 12,92 9,96c-2,5 -24,12 -47,15c-154,23 -356,192 -444,371c-62,127 -74,183 -74,350c0,157 12,216 61,310c136,261 284,378 549,434c117,24 136,25 246,6zm4201,-10c175,-41 343,-157 444,-307c49,-72 102,-184 118,-252c17,-70 23,-234 11,-318c-20,-136 -106,-303 -215,-414c-56,-58 -88,-80 -165,-117c-52,-26 -133,-58 -180,-73c-47,-15 -86,-28 -87,-28c-1,-1 8,-33 19,-71c14,-49 22,-111 25,-211c10,-261 -35,-462 -147,-657c-61,-107 -201,-288 -239,-311l-34,-19l-268,274c-147,151 -268,279 -268,285c-1,6 25,41 58,77c64,74 84,122 101,248c19,138 -24,272 -121,374c-62,66 -124,99 -221,119c-156,32 -242,17 -374,-65c-59,-36 -179,-155 -688,-679c-339,-349 -620,-636 -624,-638c-4,-1 -136,127 -294,285l-288,288l291,279c159,153 416,409 570,570c154,160 301,308 327,329c26,21 83,74 127,117c129,125 280,209 495,278c141,44 226,56 365,49c103,-6 264,-27 316,-43c12,-3 20,10 34,61c23,87 116,271 160,317c111,118 301,232 430,258c69,14 256,11 322,-5zm-1061,-2277c617,-619 751,-761 828,-877c85,-127 161,-316 191,-474c18,-96 19,-310 1,-427c-8,-53 -9,-87 -3,-91c5,-4 30,-9 56,-12c217,-26 453,-245 549,-509c25,-68 27,-84 26,-228c0,-127 -4,-166 -21,-215c-44,-134 -181,-324 -288,-400c-83,-59 -153,-90 -272,-121c-93,-24 -105,-24 -224,-15c-141,11 -209,32 -332,103c-168,97 -322,298 -352,459l-6,35l-107,-20c-163,-29 -427,-28 -547,2c-242,61 -423,156 -574,300c-34,32 -61,63 -61,69c0,6 120,140 267,296l267,285l61,-54c33,-30 93,-71 134,-92c92,-46 183,-54 294,-27c100,24 152,54 223,127c69,71 96,118 112,198c21,108 23,147 8,218c-23,108 -59,172 -145,255c-243,231 -1231,1224 -1229,1234c3,13 537,573 547,573c3,0 272,-267 597,-592zm-2777,-912c167,-167 281,-288 277,-295c-4,-6 -14,-11 -22,-11c-17,0 -66,-66 -104,-140c-40,-79 -51,-151 -39,-255c13,-116 40,-184 101,-251c65,-70 120,-108 205,-140c60,-23 78,-26 158,-21c134,8 199,34 291,118c42,38 90,77 106,87c16,9 150,145 296,301c147,157 406,419 577,583l309,299l278,-278l277,-277l-72,-76c-399,-416 -501,-520 -510,-520c-6,0 -168,-159 -361,-353c-356,-359 -452,-445 -568,-510c-82,-46 -265,-121 -347,-142c-138,-35 -287,-38 -532,-9l-57,6l-12,-38c-23,-71 -93,-202 -137,-258c-57,-74 -134,-133 -252,-194c-138,-72 -180,-82 -340,-82c-162,0 -210,11 -341,77c-80,40 -110,62 -190,143c-76,76 -104,113 -142,185c-25,50 -54,116 -63,147c-20,72 -28,242 -14,328c33,207 203,445 384,537c44,22 103,49 130,58c28,10 51,19 53,21c2,1 -5,42 -14,90c-12,60 -18,139 -18,244c-1,181 15,259 88,442c62,154 125,254 218,345c43,41 81,86 84,99c4,13 9,24 13,24c3,0 134,-128 290,-284z" fill="#5f00bf" id="svg_2"/></g></g></svg>